<?xml version="1.0" standalone="no"?>
<!DOCTYPE svg PUBLIC "-//W3C//DTD SVG 20010904//EN"
 "http://www.w3.org/TR/2001/REC-SVG-20010904/DTD/svg10.dtd">
<svg version="1.0" xmlns="http://www.w3.org/2000/svg"
 width="1036.000000pt" height="360.000000pt" viewBox="0 0 1036.000000 360.000000"
 preserveAspectRatio="xMidYMid meet">

<g transform="translate(0.000000,360.000000) scale(0.100000,-0.100000)"
fill="#ffff" stroke="none">
<path d="M9726 3569 c-200 -69 -326 -250 -326 -469 0 -200 98 -359 277 -447
70 -35 84 -38 177 -41 84 -3 112 0 165 18 151 51 264 167 311 319 24 75 26
211 6 287 -41 153 -170 289 -318 336 -82 25 -214 24 -292 -3z m299 -123 c70
-32 149 -111 183 -184 24 -50 27 -69 27 -162 0 -93 -3 -112 -27 -162 -34 -74
-112 -152 -186 -186 -48 -23 -71 -27 -147 -27 -80 0 -97 3 -150 29 -76 38
-143 105 -181 181 -26 55 -29 70 -29 165 0 96 2 110 29 165 50 100 144 180
243 205 64 16 176 5 238 -24z"/>
<path d="M9670 3330 c0 -33 3 -40 20 -40 28 0 31 -24 28 -185 l-3 -139 -25 -6
c-20 -5 -26 -13 -28 -43 l-3 -37 121 0 121 0 -3 38 c-2 30 -7 38 -25 40 -21 3
-23 9 -23 55 1 43 3 49 13 36 7 -8 38 -50 71 -92 l59 -77 74 0 74 0 -3 38 c-2
29 -7 38 -25 40 -21 3 -123 118 -123 139 0 6 11 15 25 21 64 29 74 152 17 203
-44 39 -90 49 -234 49 l-128 0 0 -40z m241 -60 c13 -7 19 -21 19 -45 0 -36
-20 -55 -59 -55 -19 0 -21 6 -21 55 0 49 2 55 21 55 11 0 29 -5 40 -10z"/>
<path d="M2051 3299 c-110 -7 -148 -12 -162 -25 -22 -20 -74 -160 -99 -269
-10 -44 -35 -189 -54 -321 -26 -171 -110 -588 -286 -1420 -138 -649 -248
-1189 -245 -1201 3 -12 13 -27 23 -32 75 -40 499 -40 737 0 83 14 94 18 105
38 5 10 32 166 60 347 78 509 128 729 211 932 124 304 295 445 519 429 116 -8
135 -18 169 -90 16 -34 35 -87 42 -117 17 -72 15 -246 -4 -335 -43 -202 -164
-407 -292 -495 -49 -34 -54 -34 -125 -19 -45 10 -53 16 -73 52 -20 38 -22 56
-21 177 0 141 6 175 62 348 24 77 25 85 11 110 -13 24 -21 27 -76 30 -81 4
-92 -8 -136 -145 -77 -237 -137 -589 -140 -818 -2 -139 -2 -141 30 -208 89
-188 263 -276 523 -263 285 13 599 146 759 321 213 234 378 808 358 1250 -15
316 -97 544 -252 701 -128 130 -269 184 -476 184 -180 0 -279 -25 -457 -114
-84 -42 -161 -76 -172 -76 -36 0 -53 42 -45 112 14 135 39 254 111 537 86 338
86 331 2 356 -120 34 -297 42 -607 24z"/>
<path d="M4775 3251 c-66 -3 -126 -10 -133 -15 -33 -21 -84 -188 -128 -415
-29 -157 -29 -181 7 -198 14 -7 101 -17 193 -24 193 -12 569 2 614 24 21 9 34
32 59 99 38 102 81 305 85 402 3 63 1 70 -23 88 -57 43 -294 57 -674 39z"/>
<path d="M948 3209 c-109 -4 -206 -12 -217 -19 -26 -13 -54 -67 -75 -145 -25
-87 -74 -376 -68 -397 7 -27 75 -58 161 -74 81 -14 401 -17 569 -6 88 7 95 9
117 36 47 59 107 279 139 512 14 104 -64 115 -626 93z"/>
<path d="M6310 2495 c-355 -67 -484 -128 -676 -320 -200 -200 -341 -467 -406
-769 -27 -124 -32 -398 -9 -511 80 -403 334 -708 691 -828 145 -49 232 -62
415 -62 236 1 414 39 624 136 258 119 494 353 590 583 60 144 93 328 65 356
-23 23 -157 33 -449 34 -338 1 -382 -5 -433 -57 -17 -18 -53 -79 -80 -137 -27
-58 -60 -116 -72 -129 -51 -53 -136 -72 -237 -52 -80 16 -145 79 -179 174 -68
188 -1 583 132 783 148 223 454 166 529 -99 10 -36 25 -63 38 -71 24 -15 118
-32 237 -41 71 -6 521 10 567 20 34 8 46 42 46 130 -1 142 -47 319 -114 432
-47 78 -158 194 -238 247 -157 105 -381 170 -671 196 -163 14 -228 12 -370
-15z"/>
<path d="M8890 2474 c-224 -35 -364 -87 -532 -196 -126 -82 -200 -157 -290
-293 -330 -497 -381 -1027 -136 -1425 100 -163 290 -327 482 -416 246 -113
541 -166 756 -135 560 82 1018 553 1156 1191 15 68 19 127 19 290 -1 226 -15
311 -77 469 -115 292 -413 473 -868 526 -174 21 -327 17 -510 -11z m342 -691
c87 -47 138 -131 158 -258 44 -275 -149 -705 -357 -797 -111 -49 -257 17 -312
142 -58 132 -48 332 30 563 27 83 92 219 122 259 7 9 60 42 118 73 93 50 109
55 148 50 24 -2 66 -17 93 -32z"/>
<path d="M4524 2341 c-39 -4 -69 -13 -82 -24 -22 -21 -83 -199 -106 -312 -8
-38 -31 -167 -51 -285 -42 -244 -73 -375 -174 -714 -80 -268 -132 -475 -156
-615 -20 -116 -33 -294 -23 -320 9 -25 81 -49 192 -62 175 -22 658 9 693 44
17 17 475 2194 468 2224 -6 26 -61 48 -155 63 -68 10 -501 11 -606 1z"/>
<path d="M701 2318 c-78 -5 -141 -14 -150 -21 -37 -31 -76 -154 -111 -352 -11
-66 -36 -178 -55 -250 -19 -71 -64 -265 -100 -430 -80 -366 -90 -404 -170
-677 -61 -207 -95 -356 -110 -481 -5 -45 -3 -64 9 -83 l16 -24 425 0 424 0 26
27 c44 49 70 150 100 393 8 69 93 500 190 959 96 458 175 846 175 862 0 40
-28 55 -134 74 -98 17 -311 18 -535 3z"/>
</g>
</svg>
